<svg width="512" height="512" viewBox="0 0 512 512" fill="none" xmlns="http://www.w3.org/2000/svg">
<path d="M34.7426 217.968C54.3907 196.496 159.032 178.454 208.896 172.116L217.827 165.406C231.223 151.241 269.403 119.555 314.951 106.135C360.499 92.7146 394.213 108.744 405.377 118.436C413.191 117.691 430.383 116.647 436.635 118.436C487.988 132.975 509.199 211.258 469.01 255.991C436.858 291.778 379.7 298.488 355.14 297.37L339.511 304.08C309.369 342.103 249.085 384.6 204.43 393.546C159.776 402.493 82.7464 386.836 51.4881 348.813C20.2298 310.79 10.1825 244.808 34.7426 217.968Z" fill="#EDC45C" stroke="black" stroke-width="11" stroke-linecap="round"/>
<path d="M417 131C432.08 132.486 458.848 142.366 445.275 170" stroke="black" stroke-width="11" stroke-linecap="round"/>
<path d="M266 172.636C290.485 157.175 377.191 125.749 372.842 152.273C370.616 165.848 310.518 185.08 290.485 182.817" stroke="black" stroke-width="11" stroke-linecap="round"/>
<path d="M301 134.976C318.033 126.116 356.461 114.64 380.98 128.331C408.751 143.837 390.977 172.633 383.202 177.064C358.612 191.074 340.99 191.462 318.773 197" stroke="black" stroke-width="11" stroke-linecap="round"/>
<path d="M255.465 187.273C227.643 186.135 172 187.956 172 204.346C172 224.832 201.326 229.385 214.86 225.97C228.395 222.556 248.698 196.379 269 191.826" stroke="black" stroke-width="11" stroke-linecap="round"/>
<path d="M101 192C81.2026 197.494 39.4897 223.418 61.0054 241" stroke="black" stroke-width="11" stroke-linecap="round"/>
<path d="M214.671 171C184.919 174.704 130.324 192.778 123.183 208.778C114.258 228.778 157.75 251 189.009 251C253.718 251 260.017 218.694 292 201.657" stroke="black" stroke-width="11" stroke-linecap="round"/>
<path d="M136.308 196C125.978 200.505 87.288 218.065 89.0589 231.58C91.2724 248.475 105.661 263.116 161 271" stroke="black" stroke-width="11" stroke-linecap="round"/>
<path d="M405.713 118C429.807 141.165 452.196 193.996 349 220" stroke="black" stroke-width="11" stroke-linecap="round"/>
<path d="M327 228.964C292.822 244.209 218.64 268.405 194.373 270.238C135.304 274.7 -28.5301 260.198 46.1423 210" stroke="black" stroke-width="11" stroke-linecap="round"/>
<path d="M326.359 226.508C301.322 199.554 237.688 178.59 209 171.477L225.766 158C255.944 165.113 316.076 192.815 346.478 219.769C376.879 246.723 365.106 282.662 355.419 297.262L339.771 304C346.478 295.015 357.655 260.2 326.359 226.508Z" stroke="black" stroke-width="11" stroke-linecap="round"/>
<path d="M22 267C37.6708 282.799 62.5898 305.228 121.968 313.935C194.379 324.552 274.225 291.074 294 285.056" stroke="black" stroke-width="11" stroke-linecap="round"/>
<path d="M76 337.142C95.3556 344.961 147.02 358.586 198.833 350.545C250.647 342.503 317.2 305.498 344 288" stroke="black" stroke-width="11" stroke-linecap="round"/>
<path d="M436.956 118C443.72 119.125 473.033 133.756 462.886 170.894C455.657 197.354 408.421 225.373 387 231" stroke="black" stroke-width="11" stroke-linecap="round"/>
<path d="M365 280C388.423 276.625 438.615 254.8 452 244" stroke="black" stroke-width="11" stroke-linecap="round"/>
<path d="M486.543 173C489.919 192.338 474.512 216.9 443 226" stroke="black" stroke-width="11" stroke-linecap="round"/>
</svg>
